<svg width="20" height="20" viewBox="0 0 20 20" fill="none" xmlns="http://www.w3.org/2000/svg">
<g clip-path="url(#clip0_6940_19161)">
<path d="M18.5731 3.63089L16.369 1.42679C15.7582 0.815952 14.7357 0.848672 14.0878 1.49564L1.35926 14.2246L0.956428 17.3477C0.832888 17.8243 0.970098 18.3204 1.32411 18.6744C1.59999 18.9502 1.96181 19.0953 2.29432 19.0953C2.38856 19.0953 2.48036 19.0835 2.56727 19.0601L5.77479 18.6407L18.5043 5.91166C19.1517 5.26371 19.1825 4.24075 18.5731 3.63089ZM5.12733 17.3086L2.3285 17.6143L2.68543 14.878L12.7987 4.76517L15.2343 7.20121L5.12733 17.3086ZM17.514 4.92141L16.2246 6.21096L13.7889 3.77492L15.078 2.48586C15.1908 2.37258 15.3314 2.36965 15.3788 2.41701L17.5829 4.62111C17.6302 4.66799 17.6268 4.80862 17.514 4.92141Z" fill="#767676"/>
</g>
<defs>
<clipPath id="clip0_6940_19161">
<rect width="20" height="20" fill="white"/>
</clipPath>
</defs>
</svg>
