<svg width="56" height="56" viewBox="0 0 56 56" fill="none" xmlns="http://www.w3.org/2000/svg">
<mask id="path-1-outside-1_609_15075" maskUnits="userSpaceOnUse" x="0" y="10" width="25" height="26" fill="black">
<rect fill="white" y="10" width="25" height="26"/>
<path fill-rule="evenodd" clip-rule="evenodd" d="M17.9736 17.565C17.9736 20.1549 15.833 22.2544 13.1924 22.2544C10.5518 22.2544 8.41113 20.1549 8.41113 17.565C8.41113 14.9752 10.5518 12.8757 13.1924 12.8757C15.833 12.8757 17.9736 14.9752 17.9736 17.565ZM18.0059 22.127C16.7888 23.3621 15.082 24.1301 13.1924 24.1301C9.49551 24.1301 6.49864 21.1908 6.49864 17.565C6.49864 13.9393 9.49551 11 13.1924 11C16.4699 11 19.1973 13.3104 19.7738 16.3612C18.7124 18.0393 18.0734 20.011 18.0059 22.127ZM18.4146 25.9607C16.9089 25.6479 15.109 25.5369 12.9533 25.5369C9.09922 25.5369 6.45951 25.8685 4.60305 27.252C2.73397 28.645 1.86154 30.9521 1.02878 34.2191C0.900689 34.7216 1.2122 35.2308 1.72455 35.3565C2.2369 35.4821 2.75608 35.1766 2.88417 34.6741C3.72483 31.376 4.48304 29.6973 5.76012 28.7455C7.04984 27.7844 9.07182 27.4126 12.9533 27.4126C15.736 27.4126 17.6543 27.6124 19.0365 28.0611C18.7857 27.3682 18.5772 26.6642 18.4146 25.9607ZM24.2104 35.36C23.9364 35.297 23.6995 35.1167 23.5718 34.8642C23.7801 35.0385 23.9931 35.204 24.2104 35.36Z"/>
</mask>
<path fill-rule="evenodd" clip-rule="evenodd" d="M17.9736 17.565C17.9736 20.1549 15.833 22.2544 13.1924 22.2544C10.5518 22.2544 8.41113 20.1549 8.41113 17.565C8.41113 14.9752 10.5518 12.8757 13.1924 12.8757C15.833 12.8757 17.9736 14.9752 17.9736 17.565ZM18.0059 22.127C16.7888 23.3621 15.082 24.1301 13.1924 24.1301C9.49551 24.1301 6.49864 21.1908 6.49864 17.565C6.49864 13.9393 9.49551 11 13.1924 11C16.4699 11 19.1973 13.3104 19.7738 16.3612C18.7124 18.0393 18.0734 20.011 18.0059 22.127ZM18.4146 25.9607C16.9089 25.6479 15.109 25.5369 12.9533 25.5369C9.09922 25.5369 6.45951 25.8685 4.60305 27.252C2.73397 28.645 1.86154 30.9521 1.02878 34.2191C0.900689 34.7216 1.2122 35.2308 1.72455 35.3565C2.2369 35.4821 2.75608 35.1766 2.88417 34.6741C3.72483 31.376 4.48304 29.6973 5.76012 28.7455C7.04984 27.7844 9.07182 27.4126 12.9533 27.4126C15.736 27.4126 17.6543 27.6124 19.0365 28.0611C18.7857 27.3682 18.5772 26.6642 18.4146 25.9607ZM24.2104 35.36C23.9364 35.297 23.6995 35.1167 23.5718 34.8642C23.7801 35.0385 23.9931 35.204 24.2104 35.36Z" fill="#35A8F6"/>
<path d="M18.0059 22.127L18.1484 22.2674L18.2033 22.2116L18.2058 22.1334L18.0059 22.127ZM19.7738 16.3612L19.9428 16.4681L19.9849 16.4015L19.9703 16.3241L19.7738 16.3612ZM18.4146 25.9607L18.6095 25.9157L18.5807 25.7909L18.4553 25.7649L18.4146 25.9607ZM4.60305 27.252L4.48354 27.0917H4.48354L4.60305 27.252ZM1.02878 34.2191L1.22258 34.2685L1.02878 34.2191ZM1.72455 35.3565L1.77218 35.1622H1.77218L1.72455 35.3565ZM2.88417 34.6741L2.69036 34.6247H2.69036L2.88417 34.6741ZM5.76012 28.7455L5.87963 28.9059L5.76012 28.7455ZM19.0365 28.0611L18.9748 28.2514L19.3638 28.3777L19.2246 27.9931L19.0365 28.0611ZM24.2104 35.36L24.1656 35.5549L24.327 35.1975L24.2104 35.36ZM23.5718 34.8642L23.7001 34.7108L23.3933 34.9545L23.5718 34.8642ZM13.1924 22.4544C15.9397 22.4544 18.1736 20.269 18.1736 17.565H17.7736C17.7736 20.0408 15.7262 22.0544 13.1924 22.0544V22.4544ZM8.21113 17.565C8.21113 20.269 10.445 22.4544 13.1924 22.4544V22.0544C10.6585 22.0544 8.61113 20.0408 8.61113 17.565H8.21113ZM13.1924 12.6757C10.445 12.6757 8.21113 14.8611 8.21113 17.565H8.61113C8.61113 15.0893 10.6585 13.0757 13.1924 13.0757V12.6757ZM18.1736 17.565C18.1736 14.8611 15.9397 12.6757 13.1924 12.6757V13.0757C15.7262 13.0757 17.7736 15.0893 17.7736 17.565H18.1736ZM13.1924 24.3301C15.1372 24.3301 16.8948 23.5395 18.1484 22.2674L17.8635 21.9866C16.6828 23.1847 15.0269 23.9301 13.1924 23.9301V24.3301ZM6.29864 17.565C6.29864 21.3049 9.38874 24.3301 13.1924 24.3301V23.9301C9.60229 23.9301 6.69864 21.0767 6.69864 17.565H6.29864ZM13.1924 10.8C9.38874 10.8 6.29864 13.8252 6.29864 17.565H6.69864C6.69864 14.0534 9.60229 11.2 13.1924 11.2V10.8ZM19.9703 16.3241C19.3758 13.1779 16.5651 10.8 13.1924 10.8V11.2C16.3747 11.2 19.0188 13.4429 19.5773 16.3983L19.9703 16.3241ZM18.2058 22.1334C18.2721 20.054 18.9 18.1169 19.9428 16.4681L19.6047 16.2543C18.5249 17.9617 17.8746 19.968 17.806 22.1206L18.2058 22.1334ZM12.9533 25.7369C15.1041 25.7369 16.8881 25.8478 18.374 26.1565L18.4553 25.7649C16.9297 25.4479 15.1138 25.3369 12.9533 25.3369V25.7369ZM4.72256 27.4124C6.5202 26.0727 9.09634 25.7369 12.9533 25.7369V25.3369C9.10211 25.3369 6.39881 25.6643 4.48354 27.0917L4.72256 27.4124ZM1.22258 34.2685C2.05598 30.999 2.916 28.7587 4.72256 27.4124L4.48354 27.0917C2.55194 28.5312 1.6671 30.9052 0.834974 34.1697L1.22258 34.2685ZM1.77218 35.1622C1.3646 35.0623 1.12276 34.6601 1.22258 34.2685L0.834974 34.1697C0.678622 34.7831 1.05979 35.3994 1.67692 35.5507L1.77218 35.1622ZM2.69036 34.6247C2.59016 35.0177 2.18105 35.2625 1.77218 35.1622L1.67692 35.5507C2.29275 35.7017 2.92199 35.3354 3.07797 34.7235L2.69036 34.6247ZM5.64061 28.5852C4.30082 29.5836 3.53025 31.3297 2.69036 34.6247L3.07797 34.7235C3.91941 31.4224 4.66526 29.8109 5.87963 28.9059L5.64061 28.5852ZM12.9533 27.2126C9.07518 27.2126 6.9893 27.5801 5.64061 28.5852L5.87963 28.9059C7.11038 27.9887 9.06845 27.6126 12.9533 27.6126V27.2126ZM19.0983 27.8709C17.6851 27.4121 15.7409 27.2126 12.9533 27.2126V27.6126C15.7311 27.6126 17.6235 27.8127 18.9748 28.2514L19.0983 27.8709ZM19.2246 27.9931C18.9764 27.3075 18.7702 26.6112 18.6095 25.9157L18.2198 26.0057C18.3842 26.7172 18.5949 27.4289 18.8485 28.1292L19.2246 27.9931ZM24.2553 35.1651C24.0371 35.1149 23.8503 34.9717 23.7502 34.7739L23.3933 34.9545C23.5487 35.2617 23.8356 35.479 24.1656 35.5549L24.2553 35.1651ZM24.327 35.1975C24.1138 35.0445 23.9048 34.882 23.7001 34.7108L23.4434 35.0176C23.6554 35.1949 23.8723 35.3635 24.0938 35.5225L24.327 35.1975Z" fill="#35A8F6" mask="url(#path-1-outside-1_609_15075)"/>
<mask id="path-3-outside-2_609_15075" maskUnits="userSpaceOnUse" x="31.2104" y="10" width="25" height="26" fill="black">
<rect fill="white" x="31.2104" y="10" width="25" height="26"/>
<path fill-rule="evenodd" clip-rule="evenodd" d="M38.2368 17.565C38.2368 20.1549 40.3774 22.2544 43.018 22.2544C45.6586 22.2544 47.7993 20.1549 47.7993 17.565C47.7993 14.9752 45.6586 12.8757 43.018 12.8757C40.3774 12.8757 38.2368 14.9752 38.2368 17.565ZM38.2045 22.127C39.4216 23.3621 41.1284 24.1301 43.018 24.1301C46.7149 24.1301 49.7118 21.1908 49.7118 17.565C49.7118 13.9393 46.7149 11 43.018 11C39.7405 11 37.0131 13.3104 36.4366 16.3612C37.498 18.0393 38.137 20.011 38.2045 22.127ZM37.7957 25.9607C39.3015 25.6479 41.1014 25.5369 43.2571 25.5369C47.1112 25.5369 49.7509 25.8685 51.6073 27.252C53.4764 28.645 54.3488 30.9521 55.1816 34.2191C55.3097 34.7216 54.9982 35.2308 54.4858 35.3565C53.9735 35.4821 53.4543 35.1766 53.3262 34.6741C52.4856 31.376 51.7273 29.6973 50.4503 28.7455C49.1606 27.7844 47.1386 27.4126 43.2571 27.4126C40.4744 27.4126 38.5561 27.6124 37.1739 28.0611C37.4247 27.3682 37.6332 26.6642 37.7957 25.9607ZM32 35.36C32.274 35.297 32.5109 35.1167 32.6386 34.8642C32.4303 35.0385 32.2173 35.204 32 35.36Z"/>
</mask>
<path fill-rule="evenodd" clip-rule="evenodd" d="M38.2368 17.565C38.2368 20.1549 40.3774 22.2544 43.018 22.2544C45.6586 22.2544 47.7993 20.1549 47.7993 17.565C47.7993 14.9752 45.6586 12.8757 43.018 12.8757C40.3774 12.8757 38.2368 14.9752 38.2368 17.565ZM38.2045 22.127C39.4216 23.3621 41.1284 24.1301 43.018 24.1301C46.7149 24.1301 49.7118 21.1908 49.7118 17.565C49.7118 13.9393 46.7149 11 43.018 11C39.7405 11 37.0131 13.3104 36.4366 16.3612C37.498 18.0393 38.137 20.011 38.2045 22.127ZM37.7957 25.9607C39.3015 25.6479 41.1014 25.5369 43.2571 25.5369C47.1112 25.5369 49.7509 25.8685 51.6073 27.252C53.4764 28.645 54.3488 30.9521 55.1816 34.2191C55.3097 34.7216 54.9982 35.2308 54.4858 35.3565C53.9735 35.4821 53.4543 35.1766 53.3262 34.6741C52.4856 31.376 51.7273 29.6973 50.4503 28.7455C49.1606 27.7844 47.1386 27.4126 43.2571 27.4126C40.4744 27.4126 38.5561 27.6124 37.1739 28.0611C37.4247 27.3682 37.6332 26.6642 37.7957 25.9607ZM32 35.36C32.274 35.297 32.5109 35.1167 32.6386 34.8642C32.4303 35.0385 32.2173 35.204 32 35.36Z" fill="#35A8F6"/>
<path d="M38.2045 22.127L38.062 22.2674L38.007 22.2116L38.0046 22.1334L38.2045 22.127ZM36.4366 16.3612L36.2676 16.4681L36.2255 16.4015L36.2401 16.3241L36.4366 16.3612ZM37.7957 25.9607L37.6009 25.9157L37.6297 25.7909L37.7551 25.7649L37.7957 25.9607ZM51.6073 27.252L51.7268 27.0917H51.7268L51.6073 27.252ZM55.1816 34.2191L54.9878 34.2685L55.1816 34.2191ZM54.4858 35.3565L54.4382 35.1622H54.4382L54.4858 35.3565ZM53.3262 34.6741L53.52 34.6247H53.52L53.3262 34.6741ZM50.4503 28.7455L50.3308 28.9059L50.4503 28.7455ZM37.1739 28.0611L37.2356 28.2514L36.8466 28.3777L36.9858 27.9931L37.1739 28.0611ZM32 35.36L32.0448 35.5549L31.8834 35.1975L32 35.36ZM32.6386 34.8642L32.5103 34.7108L32.8171 34.9545L32.6386 34.8642ZM43.018 22.4544C40.2707 22.4544 38.0368 20.269 38.0368 17.565H38.4368C38.4368 20.0408 40.4842 22.0544 43.018 22.0544V22.4544ZM47.9993 17.565C47.9993 20.269 45.7654 22.4544 43.018 22.4544V22.0544C45.5519 22.0544 47.5993 20.0408 47.5993 17.565H47.9993ZM43.018 12.6757C45.7654 12.6757 47.9993 14.8611 47.9993 17.565H47.5993C47.5993 15.0893 45.5519 13.0757 43.018 13.0757V12.6757ZM38.0368 17.565C38.0368 14.8611 40.2707 12.6757 43.018 12.6757V13.0757C40.4842 13.0757 38.4368 15.0893 38.4368 17.565H38.0368ZM43.018 24.3301C41.0732 24.3301 39.3156 23.5395 38.062 22.2674L38.3469 21.9866C39.5276 23.1847 41.1835 23.9301 43.018 23.9301V24.3301ZM49.9118 17.565C49.9118 21.3049 46.8217 24.3301 43.018 24.3301V23.9301C46.6081 23.9301 49.5118 21.0767 49.5118 17.565H49.9118ZM43.018 10.8C46.8217 10.8 49.9118 13.8252 49.9118 17.565H49.5118C49.5118 14.0534 46.6081 11.2 43.018 11.2V10.8ZM36.2401 16.3241C36.8346 13.1779 39.6453 10.8 43.018 10.8V11.2C39.8356 11.2 37.1916 13.4429 36.6331 16.3983L36.2401 16.3241ZM38.0046 22.1334C37.9383 20.054 37.3104 18.1169 36.2676 16.4681L36.6056 16.2543C37.6855 17.9617 38.3358 19.968 38.4044 22.1206L38.0046 22.1334ZM43.2571 25.7369C41.1063 25.7369 39.3223 25.8478 37.8364 26.1565L37.7551 25.7649C39.2807 25.4479 41.0966 25.3369 43.2571 25.3369V25.7369ZM51.4878 27.4124C49.6902 26.0727 47.1141 25.7369 43.2571 25.7369V25.3369C47.1083 25.3369 49.8116 25.6643 51.7268 27.0917L51.4878 27.4124ZM54.9878 34.2685C54.1544 30.999 53.2944 28.7587 51.4878 27.4124L51.7268 27.0917C53.6585 28.5312 54.5433 30.9052 55.3754 34.1697L54.9878 34.2685ZM54.4382 35.1622C54.8458 35.0623 55.0876 34.6601 54.9878 34.2685L55.3754 34.1697C55.5318 34.7831 55.1506 35.3994 54.5335 35.5507L54.4382 35.1622ZM53.52 34.6247C53.6202 35.0177 54.0293 35.2625 54.4382 35.1622L54.5335 35.5507C53.9176 35.7017 53.2884 35.3354 53.1324 34.7235L53.52 34.6247ZM50.5698 28.5852C51.9096 29.5836 52.6801 31.3297 53.52 34.6247L53.1324 34.7235C52.291 31.4224 51.5451 29.8109 50.3308 28.9059L50.5698 28.5852ZM43.2571 27.2126C47.1352 27.2126 49.2211 27.5801 50.5698 28.5852L50.3308 28.9059C49.1 27.9887 47.1419 27.6126 43.2571 27.6126V27.2126ZM37.1121 27.8709C38.5253 27.4121 40.4695 27.2126 43.2571 27.2126V27.6126C40.4793 27.6126 38.5868 27.8127 37.2356 28.2514L37.1121 27.8709ZM36.9858 27.9931C37.234 27.3075 37.4402 26.6112 37.6009 25.9157L37.9906 26.0057C37.8262 26.7172 37.6155 27.4289 37.3619 28.1292L36.9858 27.9931ZM31.9551 35.1651C32.1732 35.1149 32.3601 34.9717 32.4602 34.7739L32.8171 34.9545C32.6616 35.2617 32.3748 35.479 32.0448 35.5549L31.9551 35.1651ZM31.8834 35.1975C32.0965 35.0445 32.3056 34.882 32.5103 34.7108L32.7669 35.0176C32.555 35.1949 32.3381 35.3635 32.1166 35.5225L31.8834 35.1975Z" fill="#35A8F6" mask="url(#path-3-outside-2_609_15075)"/>
<path fill-rule="evenodd" clip-rule="evenodd" d="M28 28.7691C31.4653 28.7691 34.2744 26.014 34.2744 22.6153C34.2744 19.2167 31.4653 16.4615 28 16.4615C24.5348 16.4615 21.7256 19.2167 21.7256 22.6153C21.7256 26.014 24.5348 28.7691 28 28.7691ZM28 31.2306C32.8514 31.2306 36.7842 27.3734 36.7842 22.6153C36.7842 17.8572 32.8514 14 28 14C23.1487 14 19.2159 17.8572 19.2159 22.6153C19.2159 27.3734 23.1487 31.2306 28 31.2306Z" fill="#35A8F6"/>
<path fill-rule="evenodd" clip-rule="evenodd" d="M18.2467 37.2874C16.5708 38.5364 15.5758 40.7395 14.4726 45.0675C14.3045 45.7269 13.6232 46.1278 12.9508 45.963C12.2785 45.7981 11.8697 45.1299 12.0378 44.4704C13.1306 40.1831 14.2755 37.1555 16.7283 35.3275C19.1645 33.512 22.6286 33.0767 27.6863 33.0767C33.0207 33.0767 36.6952 33.5946 39.2509 35.4298C41.8506 37.2966 43.0234 40.3249 43.9699 44.502C44.1202 45.1655 43.6936 45.8229 43.0171 45.9704C42.3405 46.1179 41.6702 45.6995 41.5199 45.0359C40.584 40.9054 39.5607 38.703 37.7683 37.4159C35.932 36.0973 33.0184 35.5383 27.6863 35.5383C22.5926 35.5383 19.9392 36.0261 18.2467 37.2874Z" fill="#35A8F6"/>
</svg>
