<?xml version="1.0" encoding="utf-8"?>
<!-- Generator: Adobe Illustrator 27.9.0, SVG Export Plug-In . SVG Version: 6.00 Build 0)  -->
<svg version="1.1" id="レイヤー_1" xmlns="http://www.w3.org/2000/svg" xmlns:xlink="http://www.w3.org/1999/xlink" x="0px"
	 y="0px" viewBox="0 0 20 20" style="enable-background:new 0 0 20 20;" xml:space="preserve">
<style type="text/css">
	.st0{clip-path:url(#SVGID_00000141441178518289497090000005253877457784010938_);}
	.st1{fill-rule:evenodd;clip-rule:evenodd;fill:#363636;}
</style>
<g>
	<defs>
		<rect id="SVGID_1_" width="20" height="20"/>
	</defs>
	<clipPath id="SVGID_00000160148493178310288790000001255313912817209742_">
		<use xlink:href="#SVGID_1_"  style="overflow:visible;"/>
	</clipPath>
	<g style="clip-path:url(#SVGID_00000160148493178310288790000001255313912817209742_);">
		<path class="st1" d="M2.5,19.3c-1.1,0-1.9-0.9-1.9-1.9v-5.7c0-0.5,0.4-1,1-1s1,0.4,1,1v5.7h14.9v-5.7c0-0.5,0.4-1,1-1s1,0.4,1,1
			v5.7c0,1.1-0.9,1.9-1.9,1.9H2.5z"/>
		<path class="st1" d="M9.9,13.5c-0.5,0-0.9-0.4-0.9-0.9v-9L5.7,7C5.6,7.1,5.3,7.2,5.1,7.2C4.9,7.2,4.6,7.1,4.5,7
			c-0.4-0.4-0.4-1,0-1.3l4.8-4.9c0.2-0.2,0.4-0.3,0.6-0.3c0.2,0,0.5,0.1,0.6,0.3l4.8,4.9c0.4,0.4,0.4,0.9,0,1.3
			c-0.2,0.2-0.4,0.3-0.6,0.3S14.3,7.1,14.2,7l-3.3-3.4v9C10.8,13.1,10.4,13.5,9.9,13.5z"/>
	</g>
</g>
</svg>
