<?xml version="1.0" encoding="utf-8"?>
<!-- Generator: Adobe Illustrator 27.4.0, SVG Export Plug-In . SVG Version: 6.00 Build 0)  -->
<svg version="1.1" id="レイヤー_1" xmlns="http://www.w3.org/2000/svg" xmlns:xlink="http://www.w3.org/1999/xlink" x="0px"
	 y="0px" viewBox="0 0 20 17" style="enable-background:new 0 0 20 17;" xml:space="preserve">
<style type="text/css">
	.st0{fill:#333333;}
</style>
<path class="st0" d="M10,16.9c-0.2,0-0.4,0-0.6-0.1C3.6,14.2-1.4,8.2,0.5,3C1.4,1.3,3.1,0.2,5,0.1C6.9,0,8.7,0.7,10,1.9
	c1.3-1.3,3.2-1.9,5.1-1.8c1.9,0.1,3.5,1.2,4.4,2.8c2,5.2-3.1,11.2-8.9,13.9l0,0C10.4,16.9,10.2,16.9,10,16.9z M5.4,1.9
	c-0.1,0-0.2,0-0.3,0c-0.8,0-2.2,0.4-3,1.8C0.7,7.6,5,12.7,10,15.1c5-2.3,9.3-7.4,7.8-11.4c-0.7-1.4-2.1-1.7-2.8-1.7
	c-1.6-0.1-3.3,0.7-4.2,1.9L10,4.9L9.3,3.8C8.4,2.6,7,1.9,5.4,1.9z"/>
</svg>
