<?xml version="1.0" encoding="utf-8"?>
<!-- Generator: Adobe Illustrator 27.4.0, SVG Export Plug-In . SVG Version: 6.00 Build 0)  -->
<svg version="1.1" id="レイヤー_1" xmlns="http://www.w3.org/2000/svg" xmlns:xlink="http://www.w3.org/1999/xlink" x="0px"
	 y="0px" viewBox="0 0 20 20" style="enable-background:new 0 0 20 20;" xml:space="preserve">
<style type="text/css">
	.st0{fill-rule:evenodd;clip-rule:evenodd;fill:#333333;}
</style>
<path class="st0" d="M10,9c1.7,0,3.2-1.4,3.2-3.2c0-1.7-1.4-3.2-3.2-3.2S6.8,4.1,6.8,5.8C6.8,7.6,8.3,9,10,9z M10,10.8
	c2.8,0,5-2.2,5-5c0-2.8-2.2-5-5-5c-2.8,0-5,2.2-5,5C5,8.6,7.2,10.8,10,10.8z"/>
<path class="st0" d="M6.4,13.6c-0.8,0.1-1.3,0.4-2.1,0.9c-0.6,0.4-1,1.3-1.3,2.3c-0.1,0.5-0.2,0.9-0.3,1.2c0,0.2-0.1,0.3-0.1,0.4
	c0,0,0,0.1,0,0.1l0,0l0,0c-0.1,0.5-0.5,0.9-1,0.8c-0.5-0.1-0.9-0.5-0.8-1l0.9,0.1c-0.9-0.1-0.9-0.1-0.9-0.1l0,0l0,0l0,0l0,0
	c0,0,0-0.1,0-0.1c0-0.1,0-0.3,0.1-0.4c0.1-0.4,0.2-0.8,0.4-1.4c0.3-1,0.9-2.4,2-3.2C4.1,12.3,5,11.9,6,11.8c1-0.2,2.2-0.2,3.9-0.2
	h0.2c1.7,0,2.9,0,3.9,0.2c1.1,0.2,1.9,0.6,2.8,1.3c1.1,0.8,1.7,2.2,2,3.2c0.2,0.5,0.3,1,0.4,1.4c0,0.2,0.1,0.3,0.1,0.4
	c0,0.1,0,0.1,0,0.1l0,0l0,0l0,0l0,0c0,0,0,0-0.9,0.1l0.9-0.1c0.1,0.5-0.3,1-0.8,1c-0.5,0.1-1-0.3-1-0.8l0,0l0,0c0,0,0-0.1,0-0.1
	c0-0.1,0-0.2-0.1-0.4c-0.1-0.3-0.2-0.7-0.3-1.2c-0.3-1-0.8-1.9-1.3-2.3c-0.7-0.5-1.3-0.8-2.1-0.9c-0.8-0.1-1.9-0.1-3.6-0.1
	S7.2,13.4,6.4,13.6"/>
</svg>
