<?xml version="1.0" encoding="UTF-8"?><svg id="_レイヤー_1" xmlns="http://www.w3.org/2000/svg" viewBox="0 0 17.87 14.4"><defs><style>.cls-1{fill:#333;}</style></defs><path class="cls-1" d="m16.04,3.58c.01.16.01.31.01.47,0,4.8-3.69,10.34-10.43,10.34h0c-1.99,0-3.94-.57-5.62-1.63.29.03.58.05.87.05,1.65,0,3.25-.55,4.55-1.56-1.57-.03-2.94-1.04-3.42-2.52.55.11,1.12.08,1.65-.06-1.71-.34-2.94-1.83-2.94-3.56v-.05c.51.28,1.08.44,1.66.45C.77,4.45.27,2.32,1.24.66c1.86,2.27,4.61,3.65,7.55,3.8-.3-1.26.11-2.59,1.06-3.47,1.48-1.38,3.8-1.31,5.19.16.82-.16,1.61-.46,2.33-.88-.27.84-.85,1.56-1.61,2.01.73-.08,1.44-.28,2.1-.57-.49.73-1.11,1.37-1.83,1.88Z"/></svg>