<svg width="16" height="16" viewBox="0 0 16 16" fill="none" xmlns="http://www.w3.org/2000/svg">
<g clip-path="url(#clip0_344_2854)">
<path d="M5.1529 2.80597C5.58649 2.80597 5.93809 2.45463 5.93809 2.02053V0.784938C5.93809 0.351625 5.58649 0 5.1529 0C4.71931 0 4.36743 0.351625 4.36743 0.784938V2.0205C4.36743 2.45463 4.71931 2.80597 5.1529 2.80597Z" fill="#979797"/>
<path d="M10.9432 2.80597C11.3765 2.80597 11.7284 2.45463 11.7284 2.02053V0.784938C11.7284 0.351625 11.3765 0 10.9432 0C10.5096 0 10.1577 0.351625 10.1577 0.784938V2.0205C10.1577 2.45463 10.5096 2.80597 10.9432 2.80597Z" fill="#979797"/>
<path d="M13.664 1.11914H12.4182V2.02067C12.4182 2.83442 11.7567 3.49623 10.9432 3.49623C10.1297 3.49623 9.46787 2.83442 9.46787 2.02067V1.11914H6.62784V2.02067C6.62784 2.83442 5.96603 3.49623 5.15284 3.49623C4.33934 3.49623 3.67753 2.83442 3.67753 2.02067V1.11914H2.33584C1.11781 1.11914 0.130371 2.10661 0.130371 3.32461V13.7947C0.130371 15.0127 1.11781 16.0002 2.33584 16.0002H13.664C14.882 16.0002 15.8694 15.0127 15.8694 13.7947V3.32461C15.8694 2.10661 14.882 1.11914 13.664 1.11914ZM14.7963 13.7947C14.7963 14.419 14.2883 14.927 13.6639 14.927H2.33584C1.7115 14.927 1.2035 14.419 1.2035 13.7947V4.71842H14.7963V13.7947Z" fill="#979797"/>
<path d="M7.45353 11.9531H5.46631V13.9403H7.45353V11.9531Z" fill="#979797"/>
<path d="M7.45353 8.87402H5.46631V10.8612H7.45353V8.87402Z" fill="#979797"/>
<path d="M4.3739 11.9531H2.38696V13.9403H4.3739V11.9531Z" fill="#979797"/>
<path d="M4.3739 8.87402H2.38696V10.8612H4.3739V8.87402Z" fill="#979797"/>
<path d="M13.6129 5.79395H11.626V7.78088H13.6129V5.79395Z" fill="#979797"/>
<path d="M10.5334 5.79395H8.54614V7.78088H10.5334V5.79395Z" fill="#979797"/>
<path d="M13.6129 8.87402H11.626V10.8612H13.6129V8.87402Z" fill="#979797"/>
<path d="M10.5368 8.87402H8.5498V10.8612H10.5368V8.87402Z" fill="#979797"/>
<path d="M10.5334 11.9531H8.54614V13.9403H10.5334V11.9531Z" fill="#979797"/>
<path d="M7.45353 5.79395H5.46631V7.78088H7.45353V5.79395Z" fill="#979797"/>
</g>
<defs>
<clipPath id="clip0_344_2854">
<rect width="16" height="16" fill="white"/>
</clipPath>
</defs>
</svg>
