<svg width="16" height="16" viewBox="0 0 16 16" fill="none" xmlns="http://www.w3.org/2000/svg">
<g clip-path="url(#clip0_7047_29295)">
<path d="M15.4159 14.5105L11.4124 10.5071C12.2793 9.44104 12.801 8.08367 12.801 6.60583C12.801 3.18982 10.0217 0.410522 6.60572 0.410522C3.1897 0.410522 0.4104 3.18982 0.4104 6.60583C0.4104 10.0219 3.1897 12.8011 6.60571 12.8011C8.08354 12.8011 9.44092 12.2794 10.5069 11.4125L14.5104 15.416C14.6354 15.5406 14.7995 15.6031 14.9631 15.6031C15.1268 15.6031 15.2909 15.5406 15.4159 15.416C15.6655 15.166 15.6655 14.7605 15.4159 14.5105ZM1.69009 6.60583C1.69009 3.89529 3.89517 1.69021 6.60571 1.69021C9.31626 1.69021 11.5213 3.89529 11.5213 6.60583C11.5213 9.31638 9.31626 11.5215 6.60571 11.5215C3.89517 11.5215 1.69009 9.31638 1.69009 6.60583Z" fill="#969696"/>
</g>
<defs>
<clipPath id="clip0_7047_29295">
<rect width="16" height="16" fill="white"/>
</clipPath>
</defs>
</svg>
