<svg width="194" height="28" viewBox="0 0 194 28" fill="none" xmlns="http://www.w3.org/2000/svg">
<path d="M0.948 9.692C23.052 6.056 26.004 19.232 20.892 25.928L14.88 23.768C18.228 18.656 17.472 12.104 1.488 14.156L0.948 9.692ZM37.02 20.348L39.36 7.676L34.176 6.452L34.896 2.78L40.152 3.248L40.62 0.692L44.616 1.016L44.4 3.644L48.432 4.04L47.892 9.728L43.932 8.792L42.78 21.752L37.02 20.348ZM53.472 8.36L54.588 5.156L61.068 6.992L59.736 11.708L53.472 8.36ZM61.716 16.568L60.312 21.428C60.312 21.428 57.576 20.204 54.768 19.448L54.912 27.188C45.228 27.728 40.872 20.384 45.984 16.244C47.28 15.164 49.044 14.696 50.88 14.588L51.096 9.764L54.588 10.16L54.66 14.768C58.44 15.272 61.716 16.568 61.716 16.568ZM49.152 19.52C47.568 21.536 50.556 22.724 50.556 22.724L50.7 18.872C50.016 18.944 49.476 19.124 49.152 19.52ZM75.72 23.948L70.5 21.824L74.136 10.952C73.308 10.88 72.408 10.844 71.364 10.88L71.616 6.56C73.056 6.524 74.352 6.56 75.54 6.704L77.052 2.204L80.868 3.104L79.716 7.676C86.448 10.304 86.7 17.252 82.74 26.288L77.52 23.804C80.292 18.404 81.48 14.264 78.6 12.248L75.72 23.948ZM98.328 17.216L93.576 21.032L85.764 6.992L88.968 5.12L98.328 17.216ZM95.916 7.532L93.072 8.216L92.208 2.78L94.368 2.132L95.916 7.532ZM96.096 2.204L98.256 1.52L99.804 6.92L96.96 7.64L96.096 2.204ZM110.892 4.904L111.036 0.619998L124.284 1.592L120.108 9.8C133.356 9.8 134.364 26.864 121.836 26.864C111.18 26.864 113.736 12.752 124.464 16.784C123.204 14.696 119.388 12.968 115.932 14.408L113.484 11.816L115.932 5.624L110.892 4.904ZM122.592 22.616C124.14 22.616 124.644 21.896 124.788 20.6C124.284 20.204 123.672 19.88 122.988 19.88C120.252 19.88 120.828 22.616 122.592 22.616ZM141.136 13.94L141.496 9.44H161.44V15.812L141.136 13.94ZM185.168 11.6L189.236 10.556L193.7 23.084L186.896 24.344L186.32 20.06L170.084 19.628L177.716 2.636L182.252 4.148L179.012 15.704L185.708 15.632L185.168 11.6Z" fill="black"/>
</svg>
